<svg xmlns="http://www.w3.org/2000/svg" viewBox="0 0 24 24" fill="none" stroke-width="2" stroke-linecap="round" stroke-linejoin="round">
  <style>
    path {
      stroke: #171717; /* Modo Claro: Gris muy oscuro */
      fill: none;
    }
    @media (prefers-color-scheme: dark) {
      path {
        stroke: #f5f5f5; /* Modo Oscuro: Blanco/Gris muy claro */
      }
    }
  </style>
  <path d="M12 5c.67 0 1.35.09 2 .26 1.78-2 5.03-2.84 6.42-2.45.22.06.38.24.4.47a11.96 11.96 0 0 1-1.67 6.04c.54.82.85 1.79.85 2.83A9 9 0 0 1 12 21 9 9 0 0 1 3.15 12.15c0-1.04.3-2 .85-2.83a11.96 11.96 0 0 1-1.67-6.04.48.48 0 0 1 .4-.47c1.4-.39 4.64.45 6.42 2.45.65-.17 1.33-.26 2-.26Z"/>
  <path d="M9 12a1 1 0 1 0 2 0 1 1 0 1 0-2 0Z"/>
  <path d="M13 12a1 1 0 1 0 2 0 1 1 0 1 0-2 0Z"/>
  <path d="M12 16v.01"/>
  <path d="M16 16c-1.33.67-2.67.67-4 0"/>
</svg>